<svg width="80" height="79" viewBox="0 0 80 79" fill="none" xmlns="http://www.w3.org/2000/svg">
<path d="M67.5234 10.884C59.8803 3.63483 49.9127 -0.226141 39.3935 0.0102453C28.8743 0.286029 19.0643 4.61977 11.8151 12.2235C4.56598 19.8667 0.705012 29.8343 0.941398 40.3534C1.21718 50.8726 5.55092 60.6826 13.1547 67.9318C13.4698 68.247 13.785 68.5228 14.1396 68.7985C21.3888 75.2991 30.5684 78.8055 40.2996 78.8055H41.2846C50.7006 78.5692 59.5651 75.0628 66.5385 68.7985C67.3264 68.1288 68.1144 67.3802 68.8629 66.5923C75.9151 59.1855 79.7367 49.5725 79.7367 39.3685V38.4624C79.4609 27.9432 75.1272 18.1332 67.5234 10.884ZM41.1664 72.8959C33.2081 73.0535 25.6043 70.4926 19.4977 65.5679C21.2706 60.6038 26.1165 57.1762 31.4746 57.1762H49.2035C54.5616 57.1762 59.4075 60.6038 61.1804 65.5679C55.5071 70.1775 48.5732 72.6989 41.1664 72.8959ZM65.7111 61.1948C62.5199 55.2458 56.2163 51.2666 49.2035 51.2666H31.4746C24.4618 51.2666 18.1188 55.2458 14.967 61.2342C9.88466 55.4033 7.04803 48.0754 6.85105 40.2352C6.65406 31.292 9.92406 22.7821 16.1095 16.3209C22.2555 9.82026 30.5684 6.15628 39.5117 5.91989H40.3784C49.0065 5.91989 57.1618 9.1899 63.4261 15.1783C66.6567 18.2514 69.2175 21.8759 70.9904 25.8157C72.7239 29.7949 73.7089 34.1286 73.827 38.5805C74.024 46.9328 71.1874 54.9306 65.7111 61.1948Z" fill="white"/>
<path d="M51.1733 45.3175H39.354C32.3019 45.3175 26.5498 39.5655 26.5498 32.5133V24.6338C26.5498 17.5816 32.3019 11.8295 39.354 11.8295H41.3239C48.3761 11.8295 54.1282 17.5816 54.1282 24.6338V42.3627C54.1282 43.978 52.7886 45.3175 51.1733 45.3175ZM39.354 17.7392C35.5719 17.7392 32.4595 20.8516 32.4595 24.6338V32.5133C32.4595 36.2955 35.5719 39.4079 39.354 39.4079H48.2185V24.6338C48.2185 20.8516 45.1061 17.7392 41.3239 17.7392H39.354Z" fill="white"/>
</svg>
